# Blender 3.6.5
# www.blender.org
mtllib mountain2.mtl
g Mountain_Mesh
v -3.779269 0.504815 -3.799719
v -3.760579 0.964234 -2.854542
v -3.756492 0.985082 -1.913154
v -3.762403 0.705678 -0.974364
v -2.816782 0.619910 0.904189
v -2.806940 1.017378 -0.033582
v -2.798237 1.380612 -0.971649
v -2.764137 2.506598 -1.903122
v -2.776057 2.250481 -2.846542
v -2.802620 1.554632 -3.793764
v -2.829518 0.848710 -4.741073
v -1.864162 0.846200 1.844231
v -1.822830 2.189365 0.914635
v -1.962337 3.444437 -0.015133
v -1.823130 2.384121 -0.966094
v -1.792997 3.390944 -1.898597
v -1.804981 3.132936 -2.842034
v -1.824618 2.645079 -3.787458
v -1.859895 1.687536 -4.736941
v -1.904196 0.459010 -5.688768
v -0.935301 0.358965 2.778105
v -0.879148 2.147255 1.852358
v -0.828548 3.768722 0.925166
v -0.805152 4.573215 -0.009084
v -0.835131 3.774812 -0.957192
v -0.837980 3.791121 -1.898258
v -0.828690 4.172007 -2.836172
v -0.861445 3.290174 -3.785002
v -0.904824 2.089310 -4.736588
v -0.958169 0.589179 -5.690763
v 0.000462 0.079023 3.713773
v 0.021368 0.808765 2.778873
v 0.055774 2.549893 1.852786
v 0.135821 4.449774 0.927934
v 0.164051 5.399449 -0.005063
v 0.127623 4.407344 -0.954844
v 0.088520 3.334892 -1.905322
v 0.077831 3.115782 -2.848423
v 0.063684 2.792776 -3.792421
v 0.023479 1.687244 -4.743184
v -0.022896 0.396375 -5.695549
v 0.942225 0.081197 3.710671
v 0.976741 1.219633 2.779306
v 0.916758 2.478365 1.849306
v 1.055004 3.773776 0.918972
v 1.075436 4.489266 -0.016050
v 1.046538 3.723289 -0.963877
v 0.977251 1.744365 -1.922191
v 1.002961 2.618360 -2.855842
v 0.967278 1.648639 -3.805431
v 0.933183 0.726599 -4.754608
v 1.889472 0.248019 3.708994
v 1.918907 1.233881 2.776308
v 1.968863 2.836009 1.848953
v 2.313798 3.015837 0.908166
v 1.980890 2.496271 -0.036498
v 2.046697 2.031420 -0.982003
v 1.959526 0.707071 -1.934526
v 2.018106 0.745762 -2.875600
v 1.981135 0.509878 -3.818760
v 2.835141 0.367459 3.706906
v 2.857509 1.141052 2.772386
v 2.860851 1.343314 1.832929
v 2.848559 1.076025 0.889412
v 2.825543 0.486728 -0.056889
v 2.814673 0.262175 -1.000037
v 3.784447 0.697979 2.765435
v 3.776385 0.557762 1.823018
v 3.757273 0.085667 0.877730
vn -0.5581 0.7963 0.2335
vn -0.7940 0.6078 -0.0100
vn -0.6971 0.6502 -0.3023
vn -0.8262 0.5218 0.2125
vn -0.6943 0.6733 0.2543
vn -0.5581 0.5389 0.6310
vn -0.6599 0.7272 -0.1891
vn -0.6723 0.6055 -0.4259
vn -0.5731 0.6648 -0.4791
vn -0.6149 0.4615 0.6395
vn -0.6496 0.4046 0.6437
vn -0.6446 0.4618 -0.6093
vn -0.7018 0.4953 0.5121
vn -0.5129 0.7672 -0.3852
vn -0.2858 0.6800 -0.6752
vn -0.0859 0.6121 -0.7861
vn -0.2143 0.4543 0.8647
vn -0.2115 0.4901 0.8456
vn 0.3080 0.5840 -0.7510
vn 0.2186 0.5182 -0.8269
vn 0.0002 0.7883 0.6153
vn -0.1996 0.4632 0.8635
vn 0.4622 0.8626 -0.2056
vn 0.4506 0.8425 -0.2950
vn 0.6215 0.4977 -0.6050
vn 0.5156 0.4966 -0.6982
vn -0.1098 0.6314 0.7677
vn -0.0064 0.5940 0.8044
vn -0.1988 0.5856 0.7858
vn 0.5666 0.3430 -0.7492
vn 0.7985 0.4284 0.4230
vn 0.7766 0.4259 -0.4641
vn 0.6152 0.5543 -0.5606
vn -0.0851 0.6861 0.7225
vn 0.6349 0.3721 0.6771
vn 0.7952 0.4711 0.3816
vn 0.8653 0.2428 -0.4385
vn 0.9141 0.3855 -0.1259
vn 0.7688 0.3393 -0.5420
vn 0.3478 0.7181 0.6028
vn 0.6435 0.7479 0.1633
vn 0.6341 0.7418 -0.2184
vn 0.6719 0.6213 -0.4032
vn -0.5481 0.7817 0.2976
vn -0.7115 0.4606 0.5307
vn -0.8293 0.5418 -0.1366
vn -0.7295 0.5608 -0.3915
vn -0.6568 0.6135 -0.4385
vn -0.6840 0.4293 0.5898
vn -0.8181 0.2809 0.5019
vn -0.8408 0.2960 -0.4532
vn -0.5339 0.5831 0.6123
vn -0.6605 0.7263 -0.1902
vn -0.6302 0.6952 -0.3457
vn -0.6232 0.5621 -0.5437
vn -0.4730 0.5502 -0.6881
vn -0.5362 0.4013 0.7426
vn -0.6379 0.3972 0.6598
vn -0.3874 0.5811 -0.7157
vn -0.2222 0.5289 -0.8191
vn -0.3495 0.7424 0.5716
vn -0.1999 0.4632 0.8634
vn 0.2647 0.6232 -0.7359
vn 0.1169 0.5869 -0.8012
vn -0.2650 0.6154 0.7424
vn 0.0527 0.5950 0.8020
vn 0.0514 0.5789 0.8138
vn 0.5873 0.3360 -0.7363
vn 0.7898 0.4368 0.4306
vn 0.6498 0.5195 -0.5549
vn 0.5920 0.5674 -0.5724
vn -0.0081 0.6873 0.7263
vn -0.1689 0.4977 0.8507
vn 0.4884 0.8065 0.3332
vn 0.4285 0.7194 -0.5467
vn 0.8447 0.5013 -0.1877
vn 0.5013 0.4832 -0.7178
vn 0.7246 0.6853 0.0733
vn 0.7318 0.6538 -0.1922
vn 0.0785 0.7670 0.6368
vn 0.0971 0.9729 0.2098
vn 0.9601 0.2655 -0.0877
vn 0.8902 0.3768 -0.2563
vn 0.9118 0.3969 -0.1050
vn 0.4264 0.8942 -0.1367
vn 0.6927 0.6395 -0.3334
vn -0.3751 0.8954 -0.2401
vn -0.4763 0.6722 0.5669
vn -0.4516 0.6895 -0.5663
vn 0.4418 0.8970 0.0142
vn 0.7339 0.6268 0.2618
vn 0.6374 0.5533 -0.5362
vn 0.3070 0.4061 0.8607
vn 0.5724 0.5660 0.5934
vn 0.5560 0.5641 -0.6105
vn 0.4320 0.5893 -0.6827
vn 0.8647 0.3896 0.3170
vn 0.8541 0.3915 -0.3425
vn -0.6008 0.6131 0.5129
vn -0.6021 0.6200 -0.5030
vn -0.3864 0.9222 0.0172
vn -0.7042 0.6602 0.2611
vn -0.6199 0.5854 -0.5226
vn -0.3042 0.4273 0.8514
vn -0.5196 0.6066 0.6017
vn -0.5121 0.6037 -0.6110
vn -0.4026 0.6153 -0.6777
vn 0.4307 0.8780 -0.2089
vn 0.5053 0.6800 0.5314
vn 0.4928 0.6694 -0.5560
s 0
g Mountain_hill
usemtl hill
f 7//1 3//1 4//1
f 3//2 9//2 2//2
f 2//3 10//3 1//3
f 13//4 6//4 5//4
f 6//5 15//5 7//5
f 15//6 8//6 7//6
f 8//7 17//7 9//7
f 9//8 18//8 10//8
f 10//9 19//9 11//9
f 22//10 13//10 12//10
f 23//11 14//11 13//11
f 14//12 25//12 15//12
f 25//13 16//13 15//13
f 17//14 28//14 18//14
f 18//15 29//15 19//15
f 19//16 30//16 20//16
f 32//17 22//17 21//17
f 33//18 23//18 22//18
f 39//19 29//19 28//19
f 40//20 30//20 29//20
f 42//21 32//21 31//21
f 43//22 33//22 32//22
f 37//23 49//23 38//23
f 49//24 39//24 38//24
f 50//25 40//25 39//25
f 51//26 41//26 40//26
f 52//27 43//27 42//27
f 53//28 44//28 43//28
f 54//29 45//29 44//29
f 57//30 48//30 47//30
f 48//31 59//31 49//31
f 59//32 50//32 49//32
f 60//33 51//33 50//33
f 61//34 53//34 52//34
f 53//35 63//35 54//35
f 63//36 55//36 54//36
f 64//37 56//37 55//37
f 65//38 57//38 56//38
f 66//39 58//39 57//39
f 61//40 67//40 62//40
f 62//41 68//41 63//41
f 68//42 64//42 63//42
f 69//43 65//43 64//43
f 6//44 7//44 4//44
f 7//45 8//45 3//45
f 3//46 8//46 9//46
f 2//47 9//47 10//47
f 1//48 10//48 11//48
f 12//49 13//49 5//49
f 13//50 14//50 6//50
f 6//51 14//51 15//51
f 15//52 16//52 8//52
f 8//53 16//53 17//53
f 9//54 17//54 18//54
f 10//55 18//55 19//55
f 11//56 19//56 20//56
f 21//57 22//57 12//57
f 22//58 23//58 13//58
f 18//59 28//59 29//59
f 19//60 29//60 30//60
f 31//61 32//61 21//61
f 32//62 33//62 22//62
f 38//24 39//24 28//24
f 39//63 40//63 29//63
f 40//64 41//64 30//64
f 42//65 43//65 32//65
f 43//66 44//66 33//66
f 33//67 44//67 45//67
f 47//68 48//68 37//68
f 37//69 48//69 49//69
f 49//70 50//70 39//70
f 50//71 51//71 40//71
f 52//72 53//72 43//72
f 53//73 54//73 44//73
f 54//74 55//74 45//74
f 45//75 55//75 56//75
f 56//76 57//76 47//76
f 57//77 58//77 48//77
f 48//78 58//78 59//78
f 59//79 60//79 50//79
f 61//80 62//80 53//80
f 53//81 62//81 63//81
f 63//82 64//82 55//82
f 64//83 65//83 56//83
f 65//84 66//84 57//84
f 62//85 67//85 68//85
f 68//86 69//86 64//86
g Mountain_hill_top
usemtl hill_top
f 26//87 17//87 16//87
f 34//88 24//88 23//88
f 24//89 36//89 25//89
f 25//90 37//90 26//90
f 26//91 38//91 27//91
f 38//92 28//92 27//92
f 33//93 45//93 34//93
f 34//94 46//94 35//94
f 46//95 36//95 35//95
f 47//96 37//96 36//96
f 45//97 56//97 46//97
f 56//98 47//98 46//98
f 23//99 24//99 14//99
f 14//100 24//100 25//100
f 25//101 26//101 16//101
f 26//102 27//102 17//102
f 17//103 27//103 28//103
f 33//104 34//104 23//104
f 34//105 35//105 24//105
f 24//106 35//106 36//106
f 25//107 36//107 37//107
f 26//108 37//108 38//108
f 34//109 45//109 46//109
f 46//110 47//110 36//110
